<?xml version="1.0" encoding="utf-8"?>
<!-- Generator: Adobe Illustrator 19.1.0, SVG Export Plug-In . SVG Version: 6.00 Build 0)  -->
<svg version="1.1" xmlns="http://www.w3.org/2000/svg" xmlns:xlink="http://www.w3.org/1999/xlink" x="0px" y="0px"
	 viewBox="0 0 1000 1000" style="enable-background:new 0 0 1000 1000;" xml:space="preserve">
<style type="text/css">
	.st0{display:none;}
	.st1{display:inline;}
	.st2{fill:#0B2242;}
	.st3{fill:#FFFFFF;}
	.st4{fill:#C2382A;}
	.st5{fill:#DADCDD;}
	.st6{fill:#1A191A;}
	.st7{fill:#84161D;}
	.st8{fill:none;stroke:#000000;stroke-width:0.5502;}
	.st9{fill:#FABB17;}
</style>
<g id="Layer_2" class="st0">
</g>
<g id="Patriots">
</g>
<g id="Cardinals">
	<g id="Logo">
		<path class="st3" d="M731.5,787c-130.2-87.2-250.7-94-284.6-94c-5.7,0-8.8,0.2-8.8,0.2l-10.3,0.7l-2.2-10.1
			c-2.9-13.2-17.3-30.7-40.6-49.2c-18.8-14.9-36.7-25.3-36.9-25.4l-0.3-0.2l-0.3-0.2c-66.9-44.7-86.1-93.8-91.1-111.7
			C167,460.3,122.9,391.4,121.1,388.4l-12.9-20.5l6.6,0.6c-34.9-26.2-53.9-52.6-54.9-54.1l-15.4-21.7l19.8,2.1
			c-33-33.8-42.9-66.8-43.4-68.6l-7-24.3l23.3,10c103.3,44.2,269.4,56.5,278.7,57.2l228.1-0.7l0.4,0c63.1,4.3,119.4,17.3,167.4,38.5
			c38.7,17.1,72.2,39.6,99.3,66.8c37.9,38,53,74.5,57.6,87.9c56.2,29.3,83.3,66.1,96.1,92c14.7,29.6,14.8,52.4,14.8,53.4l0,10.9
			l-10.8,1c-42.2,4-80,15.1-112.3,32.9c-25.7,14.1-48,32.6-66.4,54.8c-31.2,37.7-40.1,73-40.2,73.4l-4.1,16.7L731.5,787z"/>
		<path class="st6" d="M32.4,222.9c0,0,14.3,49.4,69.4,88l-32.1-3.5c0,0,33.8,47.7,94.9,77.6l-33.4-3c0,0,44.7,71.1,135.3,106.2
			c0,0,9.1,58.1,87.6,110.6c0,0,74.6,42.9,83.3,82.4c0,0,143.6-9.5,300.8,95.8c0,0,37.1-151.8,229.4-170.1c0,0,0.2-82.4-108.9-137
			c0,0-44.7-171-315.3-189.6l-228.1,0.7C315.4,281.1,141.4,269.6,32.4,222.9z"/>
		<path class="st7" d="M98.1,267.4c0,0,46.6,61,178.6,91.8l-119.1-10.8c0,0,44.5,42.7,176.5,75L214.6,413c0,0,67.1,63.8,171.1,81.1
			l-63.8,10c0,0,5.7,32.3,115.5,103.3c0,0,36.2,30.5,28.7,38c0,0,59.5,0.7,163.5,49.5c0,0,99.7-50.9-39.4-199.4
			c0,0-63.8-70.3-135.6-116.2c0,0,108.3-25.8,243.2,51.7c0,0,68.9,51.6,132,25.8c0,0-25.8-130.5-269-151.3H296.8
			C296.8,305.5,184.9,296.9,98.1,267.4z"/>
		<path class="st8" d="M98.1,267.4c0,0,46.6,61,178.6,91.8l-119.1-10.8c0,0,44.5,42.7,176.5,75L214.6,413c0,0,67.1,63.8,171.1,81.1
			l-63.8,10c0,0,5.7,32.3,115.5,103.3c0,0,36.2,30.5,28.7,38c0,0,59.5,0.7,163.5,49.5c0,0,99.7-50.9-39.4-199.4
			c0,0-63.8-70.3-135.6-116.2c0,0,108.3-25.8,243.2,51.7c0,0,68.9,51.6,132,25.8c0,0-25.8-130.5-269-151.3H296.8
			C296.8,305.5,184.9,296.9,98.1,267.4z"/>
		<path class="st3" d="M611.6,423.8c0,0,14.3,112.6,124.8,106.9c0,0,38.7-9.3,46.6-49.5H768c0,0-12.9,40.9-51.6,33
			c0,0-23.3-0.4-45.9-34.4l36.6-5C707,474.7,642.5,454.6,611.6,423.8z"/>
		<path class="st8" d="M611.6,423.8c0,0,14.3,112.6,124.8,106.9c0,0,38.7-9.3,46.6-49.5H768c0,0-12.9,40.9-51.6,33
			c0,0-23.3-0.4-45.9-34.4l36.6-5C707,474.7,642.5,454.6,611.6,423.8z"/>
		<path class="st9" d="M759.5,581.4c0,0,112.2-20.5,187.9,16.5c0,0-95.9,4-160.1,58.2C787.3,656,793.2,615,759.5,581.4z"/>
		<path class="st8" d="M759.5,581.4c0,0,112.2-20.5,187.9,16.5c0,0-95.9,4-160.1,58.2C787.3,656,793.2,615,759.5,581.4z"/>
		<path class="st9" d="M761.1,554.2c0,0,122.9-5.3,187,35.1C932.9,529.5,829.8,483,838.2,487C838.2,487,817.6,535.1,761.1,554.2z"/>
		<path class="st8" d="M761.1,554.2c0,0,122.9-5.3,187,35.1C932.9,529.5,829.8,483,838.2,487C838.2,487,817.6,535.1,761.1,554.2z"/>
	</g>
</g>
</svg>
