<?xml version="1.0" encoding="utf-8"?>
<!-- Generator: Adobe Illustrator 19.1.0, SVG Export Plug-In . SVG Version: 6.00 Build 0)  -->
<svg version="1.1" id="Networks" xmlns="http://www.w3.org/2000/svg" xmlns:xlink="http://www.w3.org/1999/xlink" x="0px" y="0px"
	 viewBox="0 0 1000 1000" style="enable-background:new 0 0 1000 1000;" xml:space="preserve">
<style type="text/css">
	.st0{fill-rule:evenodd;clip-rule:evenodd;}
</style>
<path d="M153.9,444.8c20.9,0,39.1,15.7,45,33.9l60.7-28.3c-14-32.1-44.7-67.8-105.8-67.8c-73,0-128.1,48.5-128.1,120.5
	c0,71.6,55.2,120.5,128.1,120.5c61.1,0,92.2-37,105.8-68.1l-60.7-27.9c-5.9,18.2-24.1,33.9-45,33.9c-33.9,0-56.6-25.8-56.6-58.3
	C97.3,470.6,120,444.8,153.9,444.8z M445.4,499.2c22.7-4.9,39.8-24.7,39.8-53.7c0-27.2-20.9-59.6-69.1-59.6H275v233h146
	c46.8,0,68.8-30.5,68.8-63C489.7,525.9,470.5,503.1,445.4,499.2z M345,445h54.7c7.3,0,14,5.1,14,13.2c0,8.4-6.6,13.8-14,13.8H345
	V445z M401.8,561H345v-30h56.8c10.1,0,16.4,6.8,16.4,15.2C418.2,554.9,411.9,561,401.8,561z M572.5,452.8c0-5.9,3.9-10.5,17.8-10.5
	c22,0,48.2,7.7,68.4,23.1l37.7-49.9c-26.5-21.7-60.7-32.5-98.8-32.5c-63.9,0-96.7,37.7-96.7,77.2c0,91.9,129.9,69.2,129.9,91.5
	c0,9.1-12.6,12.6-25.8,12.6c-31.4,0-57.6-13.3-75.1-30l-36.6,52.4c24.8,22.4,58.6,37,108.2,37c62.5,0,100.5-29.7,100.5-81
	C702,455.9,572.5,474.8,572.5,452.8z M842.7,429c-39.2,0-70.9,31.8-70.9,70.6c0,39.5,31.8,70.9,70.9,70.9
	c39.1,0,70.6-31.5,70.6-70.9C913.3,460.8,881.8,429,842.7,429z M842.7,366.4c-73.5,0-131.9,60-131.9,133.2
	c0,73.8,58.4,133.9,131.9,133.9c73.8,0,131.5-60,131.5-133.9C974.3,426.5,916.5,366.4,842.7,366.4z M842.7,577
	c-60.3,0-104-38.2-122.6-77.4c18.6-38.5,62.3-76.7,122.6-76.7c60,0,103.9,38.2,122.6,76.7C946.7,538.8,902.7,577,842.7,577z"/>
</svg>
