<?xml version="1.0" encoding="utf-8"?>
<!-- Generator: Adobe Illustrator 19.1.0, SVG Export Plug-In . SVG Version: 6.00 Build 0)  -->
<svg version="1.1" id="Networks" xmlns="http://www.w3.org/2000/svg" xmlns:xlink="http://www.w3.org/1999/xlink" x="0px" y="0px"
	 viewBox="0 0 1000 1000" style="enable-background:new 0 0 1000 1000;" xml:space="preserve">
<style type="text/css">
	.st0{fill-rule:evenodd;clip-rule:evenodd;}
</style>
<path class="st0" d="M471.1,542L306.8,431c-9.5-6.2-20.8-9.9-33-9.9c-33.3,0-60.3,27.1-60.3,60.4c0,33.3,27,60.4,60.3,60.4H471.1z
	 M290.5,405.9l171.9,116.5l-84-191.4c-4.6-10.3-12.1-19.5-22.3-26.1c-27.9-18.1-65.2-10.2-83.3,17.7
	C254.6,350.5,262.6,387.8,290.5,405.9z M726.1,421c-12.2,0-23.5,3.8-33,10L528.3,542h197.7c33.4,0,60.4-27.2,60.4-60.5
	C786.5,448.2,759.4,421,726.1,421z M537.1,522.6l172.3-116.6c28-18.1,35.9-55.5,17.7-83.4c-18.2-27.9-55.5-35.9-83.5-17.7
	c-10.2,6.6-17.8,15.8-22.3,26.1L537.1,522.6z M521.5,285c9.1,0.5,13.9,2.9,2.4,7.6c-4.3,3.3-16.1,5.1-13.5,26.2l25.5,178.3l85-194.4
	c13.6-30.4-0.1-66.1-30.7-79.7c-30.5-13.5-66.3,0.1-79.9,30.6c-4.6,10.2-6,21-4.9,31.4L521.5,285z M463.8,496.9l29.9-209.1
	c1.8-11.2,0.5-23-4.5-34.1c-13.6-30.4-49.2-44.1-79.7-30.5c-30.5,13.5-44.2,49.2-30.6,79.6L463.8,496.9z M599,676.7
	c0,58.2,49.8,105.5,111.3,105.5c13.5,0,27.7-4,37.7-8v-40c-11,7-23.8,11.2-37.7,11.2c-38,0-68.7-30.7-68.7-68.6
	c0-37.9,30.7-68.6,68.7-68.6c14,0,26.7,4.1,37.7,11.3V579c-10-4.6-24.4-7.8-37.7-7.8C648.8,571.2,599,618.5,599,676.7z M378,688.7
	l-126-115V775h41V664.7l126,115V578h-41V688.7z M556,669.9c12.5-9.2,23.4-18,23.3-41.3c-0.1-30.6-24.9-50.6-55.7-50.6H442v197h91.4
	c32.2,0,56.8-24.2,56.8-56.4C590.2,686.5,563.6,672.7,556,669.9z M484,608h29.9c14.2,0,25.8,11.3,25.8,25.5
	c0,14.2-11.5,25.5-25.8,25.5H484V608z M520.5,746H484v-57.3l36.8-0.2c15.9,0,28.6,12.9,28.6,28.8C549.4,733.1,536.4,746,520.5,746z"
	/>
</svg>
