<?xml version="1.0" encoding="utf-8"?>
<!-- Generator: Adobe Illustrator 19.1.0, SVG Export Plug-In . SVG Version: 6.00 Build 0)  -->
<svg version="1.1" xmlns="http://www.w3.org/2000/svg" xmlns:xlink="http://www.w3.org/1999/xlink" x="0px" y="0px"
	 viewBox="0 0 1000 1000" style="enable-background:new 0 0 1000 1000;" xml:space="preserve">
<style type="text/css">
	.st0{display:none;}
	.st1{display:inline;}
	.st2{fill:#FFFFFF;}
	.st3{fill:#C2382A;}
	.st4{fill:#0B2242;}
	.st5{fill:#DADCDD;}
</style>
<g id="Layer_2" class="st0">
</g>
<g id="Patriots">
	<g id="Wordmark_Away">
		<g>
			<path class="st4" d="M137.7,468.9v-83.2l-24.4-21.5l-88.9,0.7V469L12,476.5l12.4,5.5v103l35.1-12.2v-69.5l51.6-9.3L137.7,468.9z
				 M101.5,461.3l-40.9,5.4v-64.5l40.9-1.3V461.3z"/>
			<polygon class="st4" points="266.8,394.7 303.3,394.3 303.5,438.2 294.2,446.4 303.5,451.5 303.7,524.1 339.2,519.8 339.9,450.5 
				349.2,443.7 340,436.8 340.5,393.9 377.5,393.6 377.9,364.9 266.4,364.9 			"/>
			<polygon class="st4" points="577.2,433.4 576.8,364.6 537.4,365.3 538.1,434.7 529.9,439.1 538.2,444.9 538.8,515.1 577.5,518 
				577.2,446.1 585.1,440.5 			"/>
			<polygon class="st4" points="819,460.6 827.4,454.9 819,446.7 819.1,398.2 855,399.3 855,364.6 741.4,364.2 740.7,395.7 
				780.9,397 781.1,446 772.2,451.3 781.2,457.7 781.5,534.5 864.7,555.3 818.8,525.5 			"/>
			<polygon class="st4" points="961.1,453.5 912,445.9 913.8,403.6 949.3,404.3 948.9,420.5 986.2,422.3 986.9,389.6 963.6,366.3 
				898.4,365.3 874,387.1 874.7,457 898.7,480.3 950,487.9 950.4,537.7 910.9,529.4 910.9,512.2 874,505.8 874.4,536.3 899.5,561 
				962.5,579.6 986.6,562.8 988,479.6 			"/>
			<path class="st4" d="M182.4,366.6l-37.3,168.7L105,562.1l74.1-16.7l9.1-41.6l39.7-6.2l9.1,36.8l36.8-7.2l-39.7-162L182.4,366.6z
				 M195.4,471l14-55.6l14,51.6L195.4,471z"/>
			<path class="st4" d="M511.6,435.9l-0.4-53.8l-21.9-17.2l-91.4,0.4l-0.8,70.3l-7.8,5.6l7.6,4.3l-0.8,70.3l39.1-1.8l-1.1-58.8
				l11.1-0.7l31.2,58.1l42.7-0.4l-33.3-59.5L511.6,435.9z M433.1,428.4l0.7-36.2l41.2-0.7l0.7,35.8L433.1,428.4z"/>
			<path class="st4" d="M723,439.2l-0.3-54.5l-22.9-17.9l-70.3-0.4l-24.4,17.6l-0.2,51.1l-8.5,5.5l8.4,6.6l-0.2,57.9l19.4,14.7
				l76.7,4.3l22.6-14.3l-0.3-57.5l8.9-5.2L723,439.2z M642.8,494v-43l8.2-8.2l-7.9-5.4l-0.7-43.4l44.5,0.4l1.4,44.4l-9.3,5.7
				l9.3,6.1l1.1,45.5L642.8,494z"/>
		</g>
		<g>
			<path class="st2" d="M336,533.7c-3.6,0.5-8.4,2.9-8,7c0.3,4.1,2,7,9.4,7.4c7.3,0.4,35.4,0.4,63.7-5.3c-2.7,7,3.6,9.5,9,9.9
				c5.4,0.5,25.8,3.2,54.8-3.7c-1.9,3.6-3.6,10.5,3.8,12c7.4,1.5,37.6,7.6,58.5,21.6c20.9,14,38.5,30.7,57.8,52.7
				c7.4,0.8,22.3-12.6,16.8-29.1c2-2,2-7.7,2-7.7l8.2-5.1l-4-21.3l13.1-6.9c0,0,15.5-58.9,16.7-63.3c1.2-4.4,0.5-11.5-7.8-9.1
				c-8.2,2.4-24.4,4.4-50.3-5.5c-26-9.9-71.8-5.8-98.3,0.1c-26.5,5.9-74.9,26-90.6,31.4C375.1,524.1,355.7,532,336,533.7L336,533.7z
				"/>
			<path class="st3" d="M335.3,541.1c25.6-3.5,63.1-16.5,80.6-24c17.5-7.5,44.6-18.2,61.2-21.6l3.7,17.4
				c-35,6.8-59.4,19.9-83.4,24.3C373.4,541.5,344.7,541.7,335.3,541.1L335.3,541.1z"/>
			<path class="st3" d="M407.7,545.8c20.4-0.9,38.8-10,48.1-14.3c9.3-4.3,20.2-7.8,28.1-9.7l3.4,14.6
				C459.6,545.5,429.8,548.5,407.7,545.8L407.7,545.8z"/>
			<path class="st4" d="M480.5,494.9l3.5,16.8c0,0,21.3-3.4,31.5,4.1c-12.9,0.1-29.1,5.6-29.1,5.6l3.5,14.1
				c19.9-4.1,36-0.1,43.2,5.1c-19.4-0.3-33.2,4.1-40.5,6.8c-7.2,2.6-16.3,5.9-22.9,6.6c20.7,1.3,53.7,16.9,68.8,27.8
				c15.1,10.9,37.1,30.3,48.1,46c8.2-5.2,12.2-12.9,8.1-21.2l2.4-6.5l-0.1-5.1l7.5-5c0,0-2.6-19.1-3.7-21.2l15.2-8.4l15.7-61.3
				c-18.2,6.2-36.6,0-41.2-1.8c-4.6-1.8-31.8-10.1-53-9.7C516.4,488.1,495.4,491.1,480.5,494.9L480.5,494.9z"/>
			<polygon class="st2" points="598.5,510.9 591.4,520.5 576.7,517 585.8,527.7 576.7,541.1 593.3,535.5 605.1,547.9 602.6,531.8 
				614.7,527.1 600.5,523.1 598.5,510.9 			"/>
			<path class="st5" d="M579.5,561.1c-7.2-1.2-13.4,5.6-13.4,10h19.3c0,0,1.3-10.1,8.8-9.4l4.9,25.3l-10.6,0.3l-1.5,2.2l5.9,3.5v2.5
				h-5.7l-6.2,6.2c0,0,4-0.3,5.7-0.9c1.8-0.6,4.9-0.6,6.5-0.6l-1,4.3l-5,0.4l5,6.6c0,0,2.9,4.4-4.1,9.4
				c-14.9-19.4-32.5-32.8-41.2-39c3.5-3.8,7.1-5.9,14.7,0c7.7,5.9,10.2,11.2,10.2,11.2l-2.7-12.9l-17.5-13.1
				C551.6,567.1,559.9,551.1,579.5,561.1L579.5,561.1z"/>
		</g>
	</g>
</g>
</svg>
